<?xml version="1.0" encoding="UTF-8"?> <svg xmlns="http://www.w3.org/2000/svg" width="181" height="48" viewBox="0 0 181 48" fill="none"><g clip-path="url(#clip0_5640_1963)"><path fill-rule="evenodd" clip-rule="evenodd" d="M39.0047 9.532L23.6847 0.736C22.8307 0.246 21.8827 0 20.9307 0C19.9807 0 19.0307 0.246 18.1807 0.736L2.86073 9.532C1.15073 10.52 0.0947266 12.352 0.0947266 14.332V32.018C0.0947266 33.998 1.15073 35.828 2.86073 36.818L18.1607 45.57C19.0107 46.06 19.9607 46.306 20.9087 46.306C21.8587 46.306 22.8087 46.06 23.6587 45.57L39.0047 36.816C40.7167 35.826 41.7727 33.996 41.7727 32.016V14.33C41.7727 12.35 40.7127 10.518 39.0027 9.53" fill="#FC6053"></path><path fill-rule="evenodd" clip-rule="evenodd" d="M28.4907 33.6191C24.9227 33.6191 23.5307 28.6471 23.5307 25.4391C22.6407 28.8651 19.5507 33.6191 16.2027 33.6191C13.2227 33.6191 11.5127 30.9991 11.5127 27.8091C11.5127 21.3771 16.4727 13.9551 22.5627 13.9551C24.7027 13.9551 26.5227 15.0951 26.5227 16.0391C26.5227 17.1511 24.3707 17.9391 23.4027 17.9391C22.6527 17.1691 21.8367 16.7711 20.8427 16.7711C17.2027 16.7711 14.6227 23.5991 14.6227 27.4191C14.6227 29.1191 15.2087 30.9191 16.8427 30.9191C19.3827 30.9191 21.7947 26.9731 22.9467 23.3331C23.3147 22.1731 23.4467 21.4491 23.5607 20.5171C23.6707 19.6071 24.3147 19.1311 25.0847 19.1311C25.8447 19.1311 26.4367 19.7671 26.4367 20.4111C26.4367 23.9951 26.1367 32.1191 28.4827 32.1191C30.0547 32.1191 30.0267 28.2391 30.0267 26.2031C31.7507 26.2031 33.0787 27.2771 33.0787 28.8951C33.0787 31.1951 31.1587 33.6211 28.4887 33.6211" fill="#FEFEFE"></path><path fill-rule="evenodd" clip-rule="evenodd" d="M68.1547 31.977C69.5027 31.977 70.6907 31.671 71.7147 31.057C72.7427 30.445 73.4847 29.657 73.9407 28.685V25.365H70.1947C68.5027 25.365 67.1547 25.705 66.1407 26.397C65.1307 27.085 64.6247 27.957 64.6247 29.007C64.6247 29.895 64.9387 30.611 65.5647 31.157C66.1927 31.703 67.0567 31.977 68.1547 31.977ZM74.2827 33.277C74.1587 32.717 74.0707 32.231 74.0187 31.823C73.9667 31.417 73.9387 31.003 73.9387 30.583C73.3187 31.453 72.4887 32.173 71.4527 32.743C70.4127 33.315 69.2467 33.603 67.9527 33.603C66.3027 33.603 65.0267 33.183 64.1247 32.347C63.2247 31.507 62.7727 30.377 62.7727 28.947C62.7727 27.417 63.4407 26.201 64.7787 25.303C66.1187 24.403 67.9307 23.957 70.2187 23.957H73.9387V21.767C73.9387 20.583 73.5527 19.655 72.7787 18.981C72.0067 18.305 70.9267 17.969 69.5387 17.969C68.6047 17.969 67.7507 18.093 66.9787 18.343C66.2067 18.595 65.5587 18.935 65.0427 19.363L64.8867 21.583H63.3467L63.3627 18.399C64.1427 17.807 65.0707 17.327 66.1547 16.959C67.2407 16.593 68.3947 16.409 69.6147 16.409C71.4747 16.409 72.9667 16.873 74.0947 17.801C75.2267 18.729 75.7907 20.061 75.7907 21.795V29.941C75.7907 30.277 75.7987 30.601 75.8147 30.913C75.8307 31.225 75.8647 31.527 75.9147 31.823L77.5947 31.933V33.279L74.2827 33.277ZM79.9667 10.681V9.29297H84.3707V23.783H86.3547L91.4947 18.317L91.4607 18.237L89.9147 18.129V16.741H95.8647V18.127L93.8967 18.315L88.1207 24.435L94.6947 32.055L96.5667 32.229V33.599H90.6347V32.227L92.4147 32.117L86.5407 25.385H84.3707V32.025L86.9167 32.225V33.595H79.9687V32.223L82.5147 32.023V10.881M98.9387 10.681V9.29297H103.447V32.027L106.053 32.227V33.599H98.9347V32.227L101.541 32.027V10.881M112.619 31.977C113.967 31.977 115.155 31.671 116.179 31.057C117.207 30.445 117.949 29.657 118.405 28.685V25.365H114.655C112.967 25.365 111.615 25.705 110.605 26.397C109.595 27.085 109.089 27.957 109.089 29.007C109.089 29.895 109.403 30.611 110.029 31.157C110.657 31.703 111.521 31.977 112.619 31.977ZM118.747 33.277C118.623 32.717 118.535 32.231 118.483 31.823C118.431 31.417 118.403 31.003 118.403 30.583C117.783 31.453 116.955 32.173 115.917 32.743C114.881 33.315 113.717 33.603 112.417 33.603C110.771 33.603 109.497 33.183 108.597 32.347C107.691 31.507 107.241 30.377 107.241 28.947C107.241 27.417 107.909 26.201 109.247 25.303C110.587 24.403 112.399 23.957 114.691 23.957H118.407V21.767C118.407 20.583 118.021 19.655 117.247 18.981C116.477 18.305 115.395 17.969 114.007 17.969C113.073 17.969 112.221 18.093 111.447 18.343C110.675 18.595 110.027 18.935 109.511 19.363L109.355 21.583H107.815L107.829 18.399C108.609 17.807 109.537 17.327 110.621 16.959C111.705 16.593 112.861 16.409 114.081 16.409C115.937 16.409 117.431 16.873 118.561 17.801C119.691 18.729 120.255 20.061 120.255 21.795V29.941C120.255 30.277 120.265 30.601 120.279 30.913C120.295 31.225 120.329 31.527 120.379 31.823L122.059 31.933V33.279L118.747 33.277ZM125.025 18.107V16.721H129.191L129.361 19.511C129.901 18.523 130.617 17.759 131.515 17.217C132.415 16.677 133.483 16.407 134.723 16.407C136.003 16.407 137.071 16.721 137.929 17.351C138.785 17.979 139.401 18.939 139.769 20.231C140.277 19.043 140.997 18.111 141.933 17.431C142.865 16.747 144.003 16.407 145.347 16.407C147.133 16.407 148.515 17.007 149.491 18.201C150.465 19.397 150.951 21.249 150.951 23.755V32.009L153.477 32.229V33.599H146.555V32.225L149.081 32.005V23.721C149.081 21.641 148.717 20.175 147.989 19.317C147.261 18.457 146.249 18.029 144.945 18.029C143.499 18.029 142.385 18.489 141.605 19.417C140.829 20.343 140.345 21.523 140.159 22.957C140.159 23.043 140.159 23.121 140.167 23.193C140.171 23.265 140.175 23.359 140.175 23.473V32.023L142.699 32.229V33.601H135.791V32.227L138.315 32.023V23.723C138.315 21.687 137.947 20.229 137.209 19.349C136.469 18.469 135.455 18.029 134.165 18.029C132.841 18.029 131.797 18.369 131.025 19.037C130.257 19.709 129.719 20.611 129.409 21.745V32.025L131.933 32.231V33.603H125.023V32.229L127.547 32.025V18.311L125.023 18.111L125.025 18.107ZM160.361 11.909H158.461V9.29297H160.361V11.909ZM155.853 32.229L158.457 32.025V18.329L155.851 18.129V16.741H160.357V32.025L162.963 32.229V33.599H155.855V32.227L155.853 32.229ZM166.575 25.255C166.575 27.175 167.067 28.787 168.047 30.095C169.027 31.399 170.397 32.055 172.151 32.055C173.875 32.055 175.231 31.399 176.211 30.095C177.191 28.787 177.681 27.175 177.681 25.255V24.751C177.681 22.863 177.187 21.259 176.201 19.943C175.215 18.629 173.855 17.971 172.121 17.971C170.387 17.971 169.029 18.631 168.047 19.945C167.067 21.265 166.577 22.865 166.577 24.755V25.259L166.575 25.255ZM164.715 24.751C164.715 22.311 165.395 20.311 166.747 18.751C168.099 17.187 169.891 16.407 172.121 16.407C174.361 16.407 176.157 17.187 177.511 18.747C178.863 20.311 179.539 22.311 179.539 24.751V25.255C179.539 27.705 178.865 29.707 177.519 31.265C176.171 32.821 174.379 33.599 172.151 33.599C169.901 33.599 168.099 32.819 166.747 31.263C165.393 29.703 164.717 27.703 164.717 25.253V24.749L164.715 24.751Z" fill="white"></path></g><defs><clipPath id="clip0_5640_1963"><rect width="180" height="48" fill="white" transform="translate(0.0947266)"></rect></clipPath></defs></svg> 