<?xml version="1.0" encoding="UTF-8"?> <svg xmlns="http://www.w3.org/2000/svg" width="167" height="48" viewBox="0 0 167 48" fill="none"><path d="M84.7806 32.7071H79.0681C78.4288 32.7071 77.901 32.5579 77.4879 32.2596C77.0732 31.9613 76.7863 31.5793 76.6273 31.1154L74.7521 25.5783H62.673L60.7977 31.1154C60.6519 31.522 60.3683 31.8891 59.947 32.217C59.5257 32.5448 59.0094 32.7071 58.3996 32.7071H52.6428L64.94 0.941406H72.4835L84.7806 32.7087V32.7071ZM64.3728 20.5624H73.0506L70.1296 11.8633C69.9411 11.3109 69.7182 10.6617 69.4641 9.91264C69.21 9.16518 68.9592 8.35378 68.7117 7.48174C68.4789 8.36853 68.2396 9.18976 67.9921 9.94543C67.7446 10.7011 67.5118 11.3551 67.2938 11.9075L64.3728 20.5624Z" fill="white"></path><path d="M87.3523 32.7093V10.1001H91.3634C91.6978 10.1001 91.9781 10.1296 92.2026 10.187C92.4272 10.2443 92.6173 10.3361 92.7698 10.4591C92.9222 10.5836 93.0386 10.7459 93.1189 10.9492C93.1993 11.1524 93.2681 11.4 93.3255 11.6917L93.6959 13.8063C94.5237 12.5277 95.4548 11.518 96.4858 10.7754C97.5185 10.0345 98.6446 9.66406 99.8658 9.66406C100.898 9.66406 101.726 9.91158 102.351 10.405L101.479 15.3766C101.421 15.6815 101.305 15.8962 101.13 16.0192C100.956 16.1437 100.723 16.2044 100.433 16.2044C100.185 16.2044 99.8953 16.1716 99.5609 16.106C99.2265 16.0405 98.8053 16.0077 98.2971 16.0077C96.5235 16.0077 95.1286 16.9535 94.1106 18.8418V32.7093H87.3523Z" fill="white"></path><path d="M113.299 33.0568C112.223 33.0568 111.274 32.9011 110.453 32.588C109.632 32.2749 108.942 31.8323 108.381 31.257C107.822 30.6833 107.396 29.9883 107.106 29.1752C106.814 28.3622 106.67 27.4524 106.67 26.4493V14.7635H104.75C104.401 14.7635 104.105 14.6504 103.857 14.4259C103.61 14.2013 103.487 13.8702 103.487 13.4342V10.7967L107.085 10.0984L108.414 4.58259C108.588 3.8843 109.083 3.53516 109.897 3.53516H113.43V10.1411H118.924V14.7635H113.43V25.9919C113.43 26.5148 113.558 26.9476 113.812 27.2902C114.066 27.6327 114.433 27.8032 114.913 27.8032C115.161 27.8032 115.367 27.7786 115.535 27.7262C115.702 27.6754 115.848 27.6164 115.971 27.5524C116.094 27.4869 116.21 27.4295 116.32 27.3787C116.43 27.3279 116.556 27.3016 116.702 27.3016C116.905 27.3016 117.069 27.3492 117.192 27.4426C117.315 27.536 117.443 27.6868 117.574 27.8901L119.623 31.0947C118.751 31.7487 117.769 32.2388 116.679 32.5667C115.589 32.8945 114.463 33.0568 113.299 33.0568Z" fill="white"></path><path d="M122.399 32.6377V0H129.158V12.0136C129.971 11.3153 130.854 10.753 131.807 10.3236C132.759 9.8941 133.897 9.681 135.219 9.681C136.454 9.681 137.549 9.89573 138.501 10.3236C139.453 10.753 140.257 11.348 140.911 12.1119C141.565 12.8741 142.058 13.7839 142.394 14.8379C142.729 15.8919 142.896 17.036 142.896 18.2719V32.6394H136.137V18.2719C136.137 17.1671 135.883 16.3066 135.374 15.6886C134.865 15.0706 134.116 14.7625 133.128 14.7625C132.387 14.7625 131.689 14.9231 131.035 15.2427C130.381 15.5624 129.756 15.9918 129.159 16.5295V32.641H122.401L122.399 32.6377Z" fill="white"></path><path d="M163.705 32.7093C163.066 32.7093 162.582 32.6224 162.256 32.4487C161.928 32.2749 161.656 31.911 161.438 31.3586L160.958 30.1161C160.391 30.5964 159.847 31.0177 159.322 31.3816C158.799 31.7438 158.257 32.0536 157.698 32.3077C157.139 32.5618 156.542 32.7519 155.909 32.8749C155.277 32.9978 154.575 33.0601 153.805 33.0601C152.772 33.0601 151.834 32.9257 150.992 32.6552C150.149 32.3847 149.433 31.9881 148.844 31.4635C148.256 30.9373 147.802 30.2866 147.482 29.5047C147.163 28.7245 147.002 27.8245 147.002 26.8033C147.002 26.0018 147.205 25.1773 147.612 24.3315C148.018 23.4856 148.723 22.7169 149.726 22.0235C150.729 21.3301 152.08 20.7515 153.782 20.2843C155.481 19.8171 157.625 19.5844 160.214 19.5844V18.6156C160.214 17.2797 159.942 16.3159 159.396 15.7208C158.85 15.1258 158.076 14.8291 157.073 14.8291C156.273 14.8291 155.619 14.916 155.111 15.0914C154.603 15.2651 154.147 15.4618 153.749 15.6799C153.349 15.8979 152.96 16.0946 152.582 16.2683C152.203 16.4421 151.754 16.5306 151.229 16.5306C150.764 16.5306 150.369 16.4175 150.041 16.1929C149.713 15.9684 149.456 15.6881 149.267 15.3537L148.046 13.2391C149.412 12.0327 150.928 11.136 152.592 10.5476C154.255 9.95911 156.04 9.66406 157.943 9.66406C159.309 9.66406 160.542 9.88535 161.64 10.3296C162.736 10.7738 163.668 11.3901 164.43 12.1835C165.192 12.9752 165.777 13.9161 166.185 15.0062C166.592 16.0962 166.795 17.2879 166.795 18.5812V32.7093H163.699H163.705ZM155.944 28.5884C156.816 28.5884 157.58 28.436 158.234 28.1294C158.888 27.8245 159.548 27.3312 160.217 26.6476V23.5512C158.865 23.5512 157.753 23.6397 156.881 23.8151C156.009 23.9905 155.319 24.2102 154.809 24.4757C154.301 24.7396 153.949 25.0396 153.752 25.3773C153.555 25.7149 153.457 26.0805 153.457 26.4771C153.457 27.2541 153.667 27.8 154.09 28.1163C154.511 28.431 155.129 28.5884 155.944 28.5884Z" fill="white"></path><path d="M27.9036 3.10079C25.8121 3.59331 23.8039 4.3026 21.9084 5.20786C20.3025 5.97266 18.7729 6.87792 17.3387 7.90458C15.445 9.26247 13.7125 10.8337 12.1829 12.587C11.1805 13.7333 10.2649 14.9577 9.44283 16.2514C8.47861 17.7671 7.64965 19.373 6.96637 21.0569C6.35592 22.5605 5.8634 24.1265 5.50442 25.7393C5.19746 27.0989 4.98415 28.495 4.87143 29.9153C4.80726 30.7148 4.77604 31.5212 4.77604 32.3363C4.77604 33.1514 4.80899 33.9404 4.86969 34.7312C3.21871 34.537 1.60415 34.2248 0.031216 33.8069C0.0104053 33.3178 0 32.8288 0 32.3363C0 31.1709 0.0572293 30.0159 0.169954 28.88C0.310426 27.4475 0.541077 26.0376 0.849768 24.6606C1.51744 21.6968 2.56144 18.877 3.93148 16.2514C4.81073 14.5623 5.82698 12.9564 6.96463 11.4459C7.93926 10.1504 8.99887 8.9243 10.1417 7.77625C10.5302 7.38605 10.9291 7.00278 11.3366 6.63339C12.7587 5.33446 14.2848 4.15346 15.908 3.10252C17.7879 1.88336 19.7961 0.841097 21.9049 0C24.0138 0.841097 26.0203 1.88336 27.9001 3.10252L27.9036 3.10079Z" fill="#FBB03B"></path><path d="M26.4763 7.90353C24.8791 8.44807 23.3495 9.14696 21.9084 9.97939C19.1076 11.5991 16.6381 13.7322 14.6299 16.2486C13.716 17.3932 12.8974 18.6193 12.1846 19.913C11.3505 21.4304 10.6637 23.0398 10.1469 24.7237C10.0203 25.1313 9.90414 25.544 9.79835 25.9602C9.44804 27.332 9.21045 28.7454 9.09252 30.1969C9.03356 30.901 9.00581 31.6155 9.00581 32.3352C9.00581 33.2249 9.0509 34.1041 9.13935 34.9712C9.09426 34.9712 9.0509 34.9712 9.00581 34.9712C7.6063 34.9712 6.22759 34.8897 4.8749 34.7285C4.81247 33.9376 4.78125 33.1399 4.78125 32.3335C4.78125 31.5271 4.8142 30.712 4.87663 29.9125C4.98936 28.4905 5.20267 27.0961 5.50962 25.7365C5.87034 24.1237 6.36113 22.5577 6.97157 21.0541C7.65312 19.3702 8.48381 17.7643 9.44804 16.2486C10.2701 14.9566 11.184 13.7322 12.1881 12.5842C13.7177 10.8326 15.4484 9.25969 17.3439 7.90179C18.7764 6.87513 20.306 5.96987 21.9136 5.20508C23.5195 5.9716 25.0473 6.87513 26.4816 7.90179L26.4763 7.90353Z" fill="#3991F7"></path><path d="M39.0376 32.3362C39.0376 33.1426 39.0046 33.9404 38.9439 34.7312C37.5895 34.8925 36.2091 34.974 34.813 34.974C34.7679 34.974 34.7246 34.974 34.6795 34.974C34.7679 34.1069 34.813 33.2276 34.813 32.3379C34.813 31.6182 34.7835 30.9055 34.7263 30.1997C34.6084 28.7498 34.369 27.3347 34.0205 25.963C33.9164 25.5467 33.7985 25.1357 33.6719 24.7265C33.1534 23.0425 32.4683 21.4332 31.6342 19.9157C30.9231 18.6237 30.1029 17.3976 29.1889 16.2513C27.1807 13.735 24.7129 11.6019 21.9104 9.98211C23.3498 9.14969 24.8794 8.4508 26.4783 7.90625C28.3721 9.26414 30.1046 10.8353 31.6342 12.5886C32.6366 13.735 33.5522 14.9593 34.3742 16.2531C35.3385 17.7688 36.1674 19.3747 36.8507 21.0586C37.4612 22.5621 37.9537 24.1281 38.3127 25.741C38.6196 27.1006 38.8329 28.4967 38.9457 29.917C39.0098 30.7165 39.041 31.5229 39.041 32.3379L39.0376 32.3362Z" fill="#5BC1FA"></path><path d="M43.8112 32.3371C43.8112 32.8296 43.8008 33.3186 43.78 33.8077C42.2071 34.2256 40.5925 34.5378 38.9415 34.732C39.004 33.9412 39.0352 33.1435 39.0352 32.3371C39.0352 31.5306 39.0022 30.7156 38.9398 29.9161C38.8271 28.494 38.6138 27.0997 38.3068 25.7401C37.9461 24.1273 37.4553 22.5613 36.8449 21.0577C36.1633 19.3738 35.3326 17.7679 34.3684 16.2522C33.5464 14.9602 32.6324 13.7358 31.6283 12.5877C30.0987 10.8362 28.368 9.26325 26.4725 7.90535C25.04 6.8787 23.5122 5.97517 21.9045 5.20864C23.8 4.30338 25.8083 3.59408 27.8997 3.10156C29.5212 4.1525 31.0508 5.3335 32.4711 6.63244C32.8787 7.00356 33.2776 7.38509 33.666 7.77529C34.8071 8.92161 35.8702 10.1477 36.8431 11.4449C37.9808 12.9554 38.997 14.5613 39.878 16.2504C41.248 18.876 42.2938 21.6959 42.958 24.6597C43.2701 26.0366 43.4973 27.4448 43.6378 28.879C43.7505 30.0149 43.8077 31.1699 43.8077 32.3353L43.8112 32.3371Z" fill="#F9803D"></path><path d="M33.6696 24.7246C33.2811 25.1148 32.8822 25.498 32.4747 25.8674C31.0544 27.1664 29.5283 28.3474 27.905 29.3983C26.0251 30.6175 24.0169 31.6597 21.9081 32.5008C19.7993 31.6597 17.7911 30.6175 15.9094 29.3983C18.0026 28.9058 20.0109 28.1947 21.9081 27.2895C23.514 26.5247 25.0418 25.6212 26.476 24.5945C28.3698 23.2366 30.1023 21.6654 31.6319 19.9121C32.466 21.4296 33.1528 23.0389 33.6696 24.7228V24.7246Z" fill="#49D657"></path><path d="M21.908 27.2936C20.0108 28.1989 18.0025 28.9099 15.9093 29.4024C14.2896 28.3515 12.76 27.1705 11.3397 25.8715C10.9321 25.5004 10.5332 25.1189 10.1448 24.7287C10.6633 23.0448 11.3483 21.4354 12.1825 19.918C13.7121 21.6695 15.4428 23.2425 17.3383 24.6004C18.7708 25.627 20.3004 26.5323 21.908 27.2953V27.2936Z" fill="#24BC36"></path><path d="M93.0886 46.2537V38.3086H94.7344V41.3345C94.9393 41.1329 95.172 40.9706 95.4327 40.8493C95.6933 40.728 95.9982 40.6657 96.349 40.6657C96.6358 40.6657 96.9014 40.728 97.1456 40.851C97.3898 40.9755 97.5996 41.1559 97.7767 41.3952C97.9537 41.6345 98.093 41.9263 98.193 42.2738C98.2947 42.6213 98.3438 43.0147 98.3438 43.4573C98.3438 43.872 98.2865 44.2539 98.1717 44.603C98.057 44.9538 97.8963 45.2571 97.6882 45.5161C97.4816 45.7751 97.2341 45.9767 96.9456 46.1209C96.6571 46.2652 96.3375 46.3389 95.9883 46.3389C95.8261 46.3389 95.6802 46.3226 95.5507 46.2914C95.4212 46.2586 95.3032 46.2144 95.195 46.1554C95.0868 46.0963 94.9884 46.0275 94.8983 45.9455C94.8081 45.8636 94.7212 45.7751 94.636 45.68L94.577 45.9554C94.5524 46.0685 94.5065 46.1472 94.4409 46.1898C94.3754 46.2324 94.2901 46.2537 94.1836 46.2537H93.0903H93.0886ZM95.7736 41.9017C95.6539 41.9017 95.5441 41.9132 95.4474 41.9361C95.3507 41.9591 95.2605 41.9918 95.1769 42.0345C95.0933 42.0771 95.0163 42.1312 94.9458 42.1967C94.8753 42.2623 94.8049 42.3377 94.7327 42.4229V44.7588C94.8573 44.8965 94.9917 44.9932 95.136 45.0473C95.2818 45.103 95.4327 45.1292 95.5917 45.1292C95.7507 45.1292 95.8834 45.0997 96.0113 45.0391C96.1391 44.9784 96.249 44.8817 96.3424 44.7506C96.4358 44.6178 96.5096 44.4457 96.562 44.2326C96.6145 44.0195 96.6424 43.7621 96.6424 43.4573C96.6424 43.1524 96.6211 42.9229 96.5784 42.7245C96.5358 42.5262 96.4768 42.3672 96.4014 42.2443C96.326 42.123 96.2342 42.0345 96.1277 41.982C96.0211 41.9295 95.9031 41.9017 95.772 41.9017H95.7736Z" fill="white"></path><path d="M101.285 47.6818C101.235 47.7916 101.175 47.8719 101.104 47.9227C101.034 47.9736 100.921 47.9998 100.765 47.9998H99.534L100.596 45.7705L98.3997 40.7497H99.8536C99.9815 40.7497 100.08 40.7776 100.15 40.8349C100.221 40.8923 100.27 40.9595 100.299 41.0365L101.201 43.4084C101.286 43.6281 101.355 43.8477 101.408 44.0657C101.444 43.9526 101.481 43.8412 101.524 43.7314C101.567 43.6215 101.608 43.5101 101.645 43.397L102.463 41.0349C102.491 40.9529 102.547 40.8857 102.63 40.83C102.714 40.7759 102.802 40.748 102.899 40.748H104.225L101.285 47.6801V47.6818Z" fill="white"></path><path d="M120.816 47.1835C120.382 47.1835 119.97 46.9835 119.702 46.6409L116.697 42.797C116.612 42.6889 116.454 42.6692 116.346 42.7544C116.286 42.802 116.249 42.8741 116.249 42.9511V46.1311C116.249 46.7114 115.779 47.1835 115.197 47.1835C114.617 47.1835 114.145 46.713 114.145 46.1311V40.5022C114.145 39.7203 114.777 39.0876 115.559 39.0876C115.994 39.0876 116.405 39.2876 116.674 39.6301L119.679 43.4691C119.764 43.5773 119.921 43.597 120.029 43.5117C120.09 43.4642 120.125 43.3921 120.126 43.315V40.1383C120.126 39.558 120.597 39.0859 121.178 39.0859C121.759 39.0859 122.231 39.5564 122.231 40.1383V45.7689C122.231 46.5508 121.598 47.1835 120.816 47.1835Z" fill="#2253FF"></path><path d="M146.054 45.7656L143.946 40.1612C143.824 39.8383 143.607 39.5679 143.337 39.381C143.061 39.1941 142.733 39.0859 142.388 39.0859C141.701 39.0859 141.083 39.5088 140.837 40.1514L138.677 45.7705C138.631 45.8885 138.608 46.0164 138.608 46.1426C138.608 46.4311 138.724 46.6917 138.911 46.8786C139.098 47.0671 139.36 47.1851 139.647 47.1851C140.073 47.1851 140.458 46.9229 140.614 46.5245L140.814 46.0164C140.871 45.8672 141.017 45.7672 141.18 45.7672H143.542C143.706 45.7672 143.853 45.8689 143.91 46.0246L144.086 46.4967C144.238 46.9081 144.632 47.1835 145.071 47.1835C145.197 47.1835 145.323 47.1605 145.441 47.1146C145.982 46.9114 146.258 46.3065 146.053 45.764L146.054 45.7656ZM143.017 44.1625H141.73C141.712 44.1625 141.691 44.1608 141.673 44.1543C141.583 44.1231 141.535 44.0231 141.566 43.9346L142.214 42.061C142.23 42.0086 142.271 41.9676 142.324 41.9512C142.414 41.9201 142.512 41.9693 142.542 42.061L143.181 43.9346C143.188 43.9527 143.191 43.9723 143.191 43.9904C143.189 44.0854 143.112 44.1658 143.015 44.1625H143.017Z" fill="#2253FF"></path><path d="M165.373 44.3081C165.355 44.2818 165.337 44.2523 165.322 44.2212C165.239 44.0212 165.332 43.7934 165.532 43.7065C165.765 43.6114 165.98 43.4721 166.16 43.295C166.586 42.8689 166.799 42.2968 166.799 41.5805C166.799 40.9543 166.614 40.4117 166.243 39.9462C165.786 39.3708 165.078 39.084 164.124 39.084H161.962C161.351 39.0856 160.855 39.5807 160.855 40.1937V46.1308C160.855 46.4226 160.973 46.6849 161.164 46.8734C161.355 47.0619 161.619 47.1815 161.908 47.1815C162.488 47.1815 162.959 46.7111 162.959 46.1308V45.4129C162.959 45.0211 163.47 44.8719 163.683 45.1998L164.657 46.7144C164.844 47.0061 165.167 47.1799 165.512 47.1799C166.357 47.1799 166.834 46.2144 166.322 45.5424L165.373 44.3064V44.3081ZM164.309 42.4328C164.116 42.6181 163.795 42.7115 163.352 42.7115H163.177C163.055 42.7115 162.96 42.6131 162.96 42.4935V40.9084C162.96 40.7904 163.055 40.692 163.177 40.692H163.352C163.791 40.692 164.111 40.7838 164.309 40.9707C164.516 41.1559 164.631 41.4231 164.626 41.6985C164.631 41.9771 164.516 42.2443 164.309 42.4328Z" fill="#2253FF"></path><path d="M112.543 45.6109L110.75 43.3226C110.663 43.2111 110.663 43.0554 110.75 42.9439L112.54 40.6606C113.038 40.0246 112.586 39.0935 111.778 39.0935C111.481 39.0935 111.202 39.2296 111.02 39.4623L109.12 41.8883C109.081 41.9391 109.009 41.9473 108.958 41.908C108.93 41.8867 108.914 41.8522 108.914 41.8162V40.0918C108.914 39.5344 108.461 39.082 107.904 39.082H107.827C107.27 39.082 106.817 39.5328 106.817 40.0901V46.1731C106.817 46.7305 107.268 47.1829 107.825 47.1829H107.903C108.46 47.1829 108.912 46.7305 108.912 46.1731V44.4454C108.912 44.3815 108.965 44.3307 109.029 44.3307C109.065 44.3307 109.097 44.3471 109.119 44.3749L111.02 46.8042C111.204 47.037 111.482 47.1747 111.779 47.1747C112.587 47.1747 113.041 46.2469 112.543 45.6109Z" fill="#2253FF"></path><path d="M150.449 40.8333H149.821C149.675 40.8333 149.557 40.9513 149.557 41.0972V46.3262C149.557 46.7983 149.174 47.1819 148.702 47.1819H148.308C147.834 47.1819 147.452 46.7983 147.452 46.3262V41.0972C147.452 40.9513 147.334 40.8333 147.189 40.8333H146.595C146.123 40.8333 145.74 40.4497 145.74 39.9776V39.9416C145.74 39.4679 146.123 39.0859 146.595 39.0859H150.447C150.921 39.0859 151.303 39.4695 151.303 39.9416V39.9776C151.303 40.4497 150.919 40.8333 150.447 40.8333H150.449Z" fill="#2253FF"></path><path d="M139.119 40.5363L136.557 46.5488C136.393 46.9324 136.016 47.1832 135.598 47.1815H135.343C134.923 47.1815 134.544 46.9291 134.382 46.5439L131.856 40.5314C131.633 40.0003 131.882 39.3905 132.413 39.1659C132.541 39.1119 132.679 39.084 132.818 39.084H132.83C133.258 39.084 133.641 39.3463 133.798 39.7429L135.369 43.7065C135.395 43.772 135.47 43.8048 135.536 43.7786C135.569 43.7655 135.595 43.7393 135.608 43.7065L137.192 39.7397C137.349 39.343 137.733 39.084 138.159 39.084C138.734 39.084 139.201 39.5512 139.201 40.1249C139.201 40.2658 139.173 40.4052 139.118 40.533L139.119 40.5363Z" fill="#2253FF"></path><path d="M127.128 45.4409L124.939 43.2526C124.876 43.1903 124.876 43.087 124.939 43.0247L127.128 40.8364C127.192 40.7741 127.293 40.7741 127.356 40.838C127.385 40.8675 127.401 40.9085 127.401 40.9495V41.5347C127.401 41.6462 127.492 41.7363 127.603 41.7363H130.96C131.05 41.7363 131.122 41.6642 131.122 41.574C131.122 41.5511 131.118 41.5281 131.108 41.5085C130.488 40.0988 129.123 39.1644 127.585 39.094C125.208 38.9874 123.241 40.9659 123.361 43.3411C123.476 45.5736 125.379 47.2899 127.611 47.1751C129.139 47.0964 130.491 46.1637 131.108 44.7639C131.144 44.6819 131.106 44.5869 131.024 44.5508C131.004 44.5426 130.981 44.5377 130.959 44.5377H127.601C127.49 44.5377 127.4 44.6278 127.4 44.7393V45.3245C127.4 45.4146 127.326 45.4851 127.236 45.4851C127.195 45.4851 127.154 45.4687 127.124 45.4392L127.128 45.4409Z" fill="#2253FF"></path><path d="M155.872 40.8756L158.061 43.0639C158.124 43.1279 158.124 43.2295 158.061 43.2934L155.872 45.4817C155.808 45.544 155.705 45.5424 155.643 45.4784C155.613 45.4489 155.597 45.4096 155.597 45.367V44.7818C155.597 44.6703 155.507 44.5802 155.395 44.5802H152.037C151.946 44.5802 151.874 44.6523 151.874 44.7425C151.874 44.7654 151.879 44.7883 151.889 44.808C152.509 46.2161 153.874 47.152 155.412 47.2225C157.788 47.3274 159.754 45.3506 159.637 42.9754C159.524 40.7429 157.623 39.025 155.39 39.1381C153.859 39.2151 152.505 40.1511 151.889 41.5526C151.853 41.6346 151.891 41.7296 151.973 41.7657C151.992 41.7739 152.015 41.7788 152.038 41.7788H155.395C155.507 41.7788 155.597 41.6887 155.597 41.5772V40.992C155.597 40.9018 155.669 40.8297 155.757 40.8297C155.8 40.8297 155.843 40.8461 155.872 40.8773V40.8756Z" fill="#F05623"></path></svg> 