<?xml version="1.0" encoding="UTF-8"?> <svg xmlns="http://www.w3.org/2000/svg" width="184" height="42" viewBox="0 0 184 42" fill="none"><g clip-path="url(#clip0_5640_1969)"><mask id="mask0_5640_1969" style="mask-type:luminance" maskUnits="userSpaceOnUse" x="0" y="0" width="184" height="42"><path d="M183.095 0H0.0947266V41.7231H183.095V0Z" fill="white"></path></mask><g mask="url(#mask0_5640_1969)"><path d="M2.822 31.1739C-0.814363 24.7814 -0.814363 16.9456 2.822 10.5532C8.51568 0.539626 21.2497 -2.96274 31.2615 2.73264C41.2734 8.42802 44.7758 21.1603 39.0821 31.1739L20.9512 12.9395L2.822 31.1739Z" fill="#FFB900"></path><path d="M31.2615 38.9924C21.248 44.6861 8.51568 41.1854 2.82031 31.1719L20.9512 12.9375L39.0821 31.1719C37.2266 34.4351 34.5248 37.1369 31.2615 38.9924Z" fill="white"></path><path d="M20.9511 27.3291C16.0105 18.7352 20.0946 13.837 20.8392 13.0534L20.9511 12.9414L39.082 31.1741C35.3795 37.6836 28.4714 41.7067 20.9816 41.7151C23.563 38.4841 24.6841 33.8234 20.9511 27.3291Z" fill="#040C21"></path><path d="M101.92 31.7287H97.9879C97.9879 31.7287 97.6741 25.8722 90.5931 25.8722H88.4899V31.7287H84.5619V14.6816H95.3454C99.2175 14.6816 101.681 17.2766 101.681 20.2209C101.681 23.3095 99.1225 24.8647 97.8047 24.8647C98.4289 25.1378 101.92 26.3895 101.92 31.727V31.7287ZM95.5032 22.1765C96.626 22.1324 97.5266 21.2318 97.5707 20.109C97.6181 18.9201 96.6921 17.9177 95.5032 17.8702H88.4899V22.1833H95.5032V22.1765ZM65.5015 14.6833H69.4262V31.7304H65.6762L55.3692 20.2277V31.7304H51.4446V14.6833H55.2183L65.4829 26.4455L65.4998 14.6833H65.5015ZM75.1674 14.6833H78.8563V31.7304H75.1674V14.6833ZM183.095 31.7287H178.933C177.661 29.1236 175.105 27.6107 170.727 27.6107H168.858L166.843 31.7287H162.688L170.87 14.6816H174.913L183.095 31.7287ZM175.832 25.0174L172.951 18.7742L170.503 24.2559H171.867C173.449 24.2559 175.252 24.6714 175.832 25.0157V25.0174ZM157.254 14.6833H161.178V31.7304H157.428L147.118 20.2277V31.7304H143.197V14.6833H146.97L157.254 26.4387V14.6833ZM133.5 14.6833L141.682 31.7304H137.527C136.251 29.1253 133.699 27.6124 129.318 27.6124H127.449L125.437 31.7304H121.279L129.46 14.6833H133.5ZM130.459 24.2559C132.038 24.2559 133.848 24.6714 134.421 25.0157L131.54 18.7725L129.096 24.2542H130.459V24.2559ZM123.181 14.6833L115.224 31.7304H111.133L103.178 14.6833H107.512L113.266 27.1782L119.018 14.6833H123.181Z" fill="white"></path></g></g><defs><clipPath id="clip0_5640_1969"><rect width="183" height="42" fill="white" transform="translate(0.0947266)"></rect></clipPath></defs></svg> 