<?xml version="1.0" encoding="UTF-8"?> <svg xmlns="http://www.w3.org/2000/svg" width="177" height="48" viewBox="0 0 177 48" fill="none"><path d="M30.0535 31.9662C28.3165 32.5379 26.4594 32.8509 24.5275 32.8509C18.2573 32.8509 12.1285 29.4449 9.0547 24.5444C9.0547 24.5444 8.98334 24.4326 8.94888 24.3758C8.93756 24.3569 8.92518 24.3389 8.91387 24.32L8.91549 24.3184C8.03745 22.8504 8.22375 21.14 8.22375 19.3122C8.22375 13.8601 12.7058 9.44016 18.235 9.44016C21.6842 9.44016 24.7257 11.1604 26.5259 13.7781C23.6928 9.20279 17.9859 5.77344 11.9422 5.77344C10.0076 5.77344 8.14944 6.09046 6.41058 6.6637C2.95386 9.80736 0.786877 14.3097 0.786877 19.3122C0.786877 28.8143 8.59855 36.5176 18.235 36.5176C22.7951 36.5176 26.9449 34.7907 30.0535 31.9662Z" fill="#FBB03B"></path><path d="M26.5669 14.0937C27.6657 15.7076 28.3081 17.6549 28.3081 19.7518C28.3081 25.3263 23.7716 29.8456 18.1753 29.8456C14.5521 29.8456 11.3752 27.9501 9.58392 25.1015C12.6951 30.1121 18.1979 33.5946 24.5442 33.5946C26.4996 33.5946 28.3792 33.2746 30.1373 32.6901C33.6392 29.4755 35.835 24.8699 35.835 19.7521C35.835 10.0365 27.9284 2.16016 18.175 2.16016C13.5565 2.16016 9.35391 3.92801 6.20705 6.81923C7.96729 6.23311 9.84772 5.90897 11.8058 5.90897C17.9229 5.90924 23.6994 9.41563 26.5669 14.0937Z" fill="#034FE3"></path><g clip-path="url(#clip0_5626_1114)"><path d="M13.0246 28.3257C11.3555 27.3352 10.1474 25.8973 9.25958 24.0078C6.89927 18.9849 8.86248 12.9525 13.8827 10.5907C17.1329 9.06153 20.5862 9.0692 23.3993 10.88C18.4868 7.6781 12.2749 7.22206 6.58202 9.90046C4.82794 10.7257 3.27737 11.8074 1.94779 13.076C0.167453 17.4505 0.147847 22.5271 2.31483 27.1387C6.42856 35.8931 17.0951 39.6777 25.8444 35.5613C30.043 33.5859 32.9821 30.3098 34.5776 26.2878C33.2468 27.5589 31.488 28.6446 29.7315 29.4709C24.244 32.0524 17.5776 31.3308 13.0246 28.3257Z" fill="#048EF2"></path></g><path d="M112.819 46.504V39.6914H114.23V42.286C114.405 42.1131 114.605 41.974 114.829 41.87C115.052 41.766 115.313 41.7126 115.614 41.7126C115.86 41.7126 116.088 41.766 116.297 41.8714C116.507 41.9782 116.687 42.1328 116.838 42.338C116.99 42.5432 117.11 42.7934 117.195 43.0914C117.283 43.3894 117.325 43.7267 117.325 44.1062C117.325 44.4618 117.276 44.7893 117.177 45.0886C117.079 45.3894 116.941 45.6494 116.763 45.8715C116.585 46.0936 116.373 46.2665 116.126 46.3902C115.878 46.5138 115.604 46.5771 115.305 46.5771C115.166 46.5771 115.041 46.563 114.93 46.5363C114.819 46.5082 114.717 46.4703 114.625 46.4197C114.532 46.3691 114.448 46.31 114.37 46.2398C114.293 46.1695 114.219 46.0936 114.145 46.0121L114.095 46.2482C114.074 46.3452 114.034 46.4126 113.978 46.4492C113.922 46.4857 113.849 46.504 113.757 46.504H112.82H112.819ZM115.121 42.7723C115.018 42.7723 114.924 42.7822 114.841 42.8018C114.758 42.8215 114.681 42.8496 114.609 42.8862C114.538 42.9227 114.472 42.9691 114.411 43.0253C114.351 43.0815 114.29 43.1462 114.228 43.2193V45.2222C114.335 45.3402 114.45 45.4232 114.574 45.4695C114.699 45.5173 114.829 45.5398 114.965 45.5398C115.101 45.5398 115.215 45.5145 115.325 45.4625C115.434 45.4105 115.528 45.3276 115.609 45.2151C115.689 45.1013 115.752 44.9537 115.797 44.771C115.842 44.5883 115.866 44.3676 115.866 44.1062C115.866 43.8447 115.848 43.648 115.811 43.4779C115.774 43.3078 115.724 43.1715 115.659 43.0661C115.595 42.9621 115.516 42.8862 115.424 42.8412C115.333 42.7962 115.232 42.7723 115.119 42.7723H115.121Z" fill="white"></path><path d="M119.846 47.7266C119.804 47.8208 119.752 47.8897 119.692 47.9333C119.631 47.9768 119.534 47.9993 119.401 47.9993H118.345L119.256 46.0878L117.373 41.7827H118.619C118.729 41.7827 118.813 41.8065 118.874 41.8557C118.934 41.9049 118.976 41.9626 119.002 42.0286L119.775 44.0624C119.848 44.2508 119.907 44.4391 119.952 44.626C119.983 44.5291 120.015 44.4335 120.051 44.3393C120.088 44.2451 120.123 44.1496 120.156 44.0526L120.857 42.0272C120.881 41.9569 120.929 41.8993 121 41.8515C121.072 41.8051 121.148 41.7812 121.231 41.7812H122.368L119.846 47.7252V47.7266Z" fill="white"></path><path d="M136.593 47.3007C136.221 47.3007 135.868 47.1293 135.637 46.8355L133.061 43.5395C132.988 43.4468 132.853 43.4299 132.76 43.503C132.708 43.5438 132.677 43.6056 132.677 43.6717V46.3984C132.677 46.8959 132.274 47.3007 131.775 47.3007C131.277 47.3007 130.873 46.8974 130.873 46.3984V41.5718C130.873 40.9014 131.415 40.3588 132.086 40.3588C132.458 40.3588 132.811 40.5303 133.041 40.8241L135.618 44.1158C135.691 44.2086 135.826 44.2254 135.918 44.1523C135.97 44.1116 136 44.0497 136.001 43.9837V41.2598C136.001 40.7622 136.405 40.3574 136.904 40.3574C137.401 40.3574 137.806 40.7608 137.806 41.2598V46.0878C137.806 46.7582 137.264 47.3007 136.593 47.3007Z" fill="#3763FF"></path><path d="M158.234 46.085L156.427 41.2794C156.321 41.0026 156.136 40.7706 155.904 40.6104C155.668 40.4502 155.387 40.3574 155.09 40.3574C154.501 40.3574 153.971 40.72 153.76 41.271L151.908 46.0892C151.869 46.1904 151.849 46.3 151.849 46.4082C151.849 46.6556 151.949 46.8791 152.109 47.0393C152.269 47.2009 152.494 47.3021 152.74 47.3021C153.105 47.3021 153.436 47.0773 153.569 46.7357L153.741 46.3C153.79 46.1721 153.915 46.0864 154.054 46.0864H156.08C156.22 46.0864 156.347 46.1735 156.396 46.307L156.546 46.7118C156.677 47.0646 157.014 47.3007 157.391 47.3007C157.499 47.3007 157.607 47.2811 157.709 47.2417C158.172 47.0674 158.408 46.5488 158.233 46.0835L158.234 46.085ZM155.63 44.7103H154.526C154.511 44.7103 154.493 44.7089 154.477 44.7033C154.4 44.6766 154.359 44.5909 154.386 44.515L154.941 42.9085C154.955 42.8635 154.99 42.8283 155.035 42.8143C155.113 42.7876 155.197 42.8297 155.222 42.9085L155.77 44.515C155.776 44.5304 155.779 44.5473 155.779 44.5628C155.777 44.6443 155.711 44.7132 155.628 44.7103H155.63Z" fill="#3763FF"></path><path d="M174.8 44.8349C174.784 44.8124 174.769 44.7871 174.756 44.7604C174.685 44.5889 174.765 44.3936 174.936 44.3191C175.136 44.2375 175.32 44.1181 175.475 43.9663C175.84 43.6008 176.023 43.1103 176.023 42.4961C176.023 41.9592 175.864 41.4939 175.546 41.0948C175.154 40.6014 174.547 40.3555 173.729 40.3555H171.875C171.351 40.3569 170.926 40.7813 170.926 41.307V46.3978C170.926 46.648 171.027 46.8729 171.191 47.0345C171.355 47.1962 171.581 47.2988 171.829 47.2988C172.326 47.2988 172.73 46.8954 172.73 46.3978V45.7822C172.73 45.4463 173.168 45.3184 173.351 45.5995L174.186 46.8982C174.346 47.1484 174.623 47.2974 174.919 47.2974C175.643 47.2974 176.052 46.4695 175.614 45.8933L174.8 44.8335V44.8349ZM173.888 43.227C173.722 43.3858 173.446 43.4659 173.067 43.4659H172.917C172.812 43.4659 172.731 43.3816 172.731 43.279V41.9198C172.731 41.8186 172.812 41.7343 172.917 41.7343H173.067C173.444 41.7343 173.718 41.813 173.888 41.9732C174.065 42.1321 174.163 42.3612 174.159 42.5973C174.163 42.8362 174.065 43.0653 173.888 43.227Z" fill="#3763FF"></path><path d="M129.5 45.9517L127.962 43.9896C127.887 43.894 127.887 43.7605 127.962 43.6649L129.497 41.707C129.924 41.1617 129.536 40.3634 128.843 40.3634C128.589 40.3634 128.35 40.48 128.194 40.6796L126.565 42.7598C126.531 42.8034 126.469 42.8104 126.426 42.7766C126.402 42.7584 126.388 42.7289 126.388 42.6979V41.2193C126.388 40.7414 126 40.3535 125.522 40.3535H125.456C124.978 40.3535 124.59 40.74 124.59 41.2179V46.4338C124.59 46.9117 124.977 47.2996 125.454 47.2996H125.521C125.998 47.2996 126.386 46.9117 126.386 46.4338V44.9524C126.386 44.8976 126.431 44.854 126.486 44.854C126.517 44.854 126.545 44.8681 126.563 44.892L128.194 46.975C128.351 47.1746 128.59 47.2926 128.845 47.2926C129.538 47.2926 129.927 46.4971 129.5 45.9517Z" fill="#3763FF"></path><path d="M162.002 41.8557H161.464C161.339 41.8557 161.237 41.9569 161.237 42.082V46.5656C161.237 46.9704 160.908 47.2993 160.504 47.2993H160.166C159.76 47.2993 159.433 46.9704 159.433 46.5656V42.082C159.433 41.9569 159.331 41.8557 159.206 41.8557H158.698C158.293 41.8557 157.964 41.5268 157.964 41.122V41.0911C157.964 40.6849 158.293 40.3574 158.698 40.3574H162.001C162.407 40.3574 162.734 40.6863 162.734 41.0911V41.122C162.734 41.5268 162.405 41.8557 162.001 41.8557H162.002Z" fill="#3763FF"></path><path d="M152.287 41.6008L150.091 46.7562C149.95 47.0851 149.627 47.3002 149.268 47.2988H149.049C148.689 47.2988 148.365 47.0823 148.225 46.752L146.06 41.5966C145.868 41.1412 146.082 40.6183 146.537 40.4257C146.647 40.3794 146.765 40.3555 146.885 40.3555H146.894C147.261 40.3555 147.59 40.5804 147.725 40.9205L149.072 44.3191C149.094 44.3753 149.159 44.4034 149.215 44.3809C149.243 44.3697 149.266 44.3472 149.277 44.3191L150.635 40.9177C150.769 40.5775 151.098 40.3555 151.464 40.3555C151.957 40.3555 152.358 40.756 152.358 41.248C152.358 41.3689 152.334 41.4883 152.286 41.598L152.287 41.6008Z" fill="#3763FF"></path><path d="M142.006 45.8051L140.13 43.9287C140.075 43.8753 140.075 43.7868 140.13 43.7334L142.006 41.857C142.061 41.8036 142.148 41.8036 142.201 41.8584C142.227 41.8837 142.241 41.9188 142.241 41.954V42.4557C142.241 42.5513 142.318 42.6286 142.414 42.6286H145.292C145.37 42.6286 145.431 42.5668 145.431 42.4895C145.431 42.4698 145.427 42.4501 145.419 42.4332C144.887 41.2245 143.717 40.4233 142.398 40.3629C140.36 40.2715 138.674 41.968 138.776 44.0046C138.875 45.919 140.506 47.3905 142.421 47.2922C143.731 47.2247 144.89 46.4249 145.419 45.2246C145.45 45.1543 145.417 45.0728 145.347 45.0419C145.33 45.0349 145.31 45.0307 145.291 45.0307H142.412C142.317 45.0307 142.239 45.108 142.239 45.2035V45.7053C142.239 45.7826 142.176 45.8431 142.099 45.8431C142.064 45.8431 142.029 45.829 142.003 45.8037L142.006 45.8051Z" fill="#3763FF"></path><path d="M166.653 41.8928L168.53 43.7692C168.585 43.824 168.585 43.9112 168.53 43.966L166.653 45.8424C166.599 45.8958 166.51 45.8944 166.457 45.8396C166.431 45.8143 166.417 45.7805 166.417 45.744V45.2422C166.417 45.1466 166.34 45.0693 166.244 45.0693H163.364C163.287 45.0693 163.225 45.1312 163.225 45.2085C163.225 45.2281 163.23 45.2478 163.238 45.2647C163.769 46.472 164.94 47.2746 166.258 47.335C168.296 47.425 169.982 45.7299 169.882 43.6933C169.785 41.779 168.155 40.306 166.24 40.403C164.927 40.469 163.766 41.2716 163.238 42.4733C163.207 42.5436 163.239 42.6251 163.31 42.656C163.327 42.6631 163.346 42.6673 163.366 42.6673H166.244C166.34 42.6673 166.417 42.59 166.417 42.4944V41.9926C166.417 41.9153 166.479 41.8535 166.555 41.8535C166.592 41.8535 166.628 41.8675 166.653 41.8942V41.8928Z" fill="#F05623"></path><path d="M69.8377 10.7989C71.6731 10.7989 73.2806 11.2067 74.661 12.0223C76.0408 12.8379 77.1078 14.0299 77.8607 15.5984C78.6136 17.1669 78.99 19.049 78.99 21.2448V36.0668H72.9906V22.0212C72.9906 20.2489 72.5671 18.8686 71.7202 17.8805C70.8884 16.8924 69.7436 16.3983 68.285 16.3983C67.2968 16.3983 66.4028 16.6649 65.6029 17.1982C64.8187 17.7315 64.1991 18.453 63.7443 19.3627C63.2894 20.2567 63.062 21.2291 63.062 22.28V36.0668H57.0626V22.0212C57.0626 20.2489 56.6391 18.8686 55.7921 17.8805C54.9609 16.8924 53.8159 16.3983 52.3572 16.3983C51.3691 16.3983 50.4751 16.6649 49.6751 17.1982C48.8752 17.7315 48.2478 18.453 47.793 19.3627C47.3382 20.2567 47.1107 21.2291 47.1107 22.28V36.0668H41.1113V11.4106H46.2637L46.5931 13.9515C47.5342 12.9476 48.6478 12.1713 49.9339 11.6223C51.2357 11.0734 52.5611 10.7989 53.91 10.7989C55.6353 10.7989 57.1645 11.1596 58.4978 11.8811C59.831 12.6026 60.8818 13.6535 61.6504 15.0337C62.5601 13.7005 63.7521 12.6653 65.2265 11.9282C66.7165 11.1753 68.2536 10.7989 69.8377 10.7989ZM98.4129 10.8695C100.389 10.8695 102.107 11.2929 103.565 12.1399C105.039 12.9712 106.177 14.1868 106.977 15.7866C107.777 17.3707 108.177 19.2686 108.177 21.4801V36.0668H102.154V22.5388C102.154 20.5939 101.675 19.0882 100.719 18.0217C99.7775 16.9551 98.4599 16.4218 96.766 16.4218C95.6519 16.4218 94.6251 16.6884 93.684 17.2217C92.7581 17.755 92.0212 18.4765 91.4724 19.3862C90.9389 20.2959 90.6725 21.2997 90.6725 22.3977V36.0668H84.6732V11.4106H89.8256L90.2255 14.6102C91.1348 13.4967 92.3429 12.5947 93.8487 11.9046C95.3544 11.2145 96.8753 10.8695 98.4129 10.8695ZM116.887 7.19925C116.165 7.19925 115.514 7.03456 114.934 6.70518C114.37 6.3601 113.923 5.91311 113.593 5.36415C113.279 4.81519 113.123 4.23485 113.123 3.62315C113.123 3.01145 113.279 2.43112 113.593 1.88216C113.923 1.31751 114.37 0.862653 114.934 0.517596C115.514 0.172531 116.165 0 116.887 0C117.608 0 118.252 0.172531 118.816 0.517596C119.396 0.862653 119.843 1.31751 120.157 1.88216C120.487 2.43112 120.651 3.01145 120.651 3.62315C120.651 4.23485 120.487 4.81519 120.157 5.36415C119.843 5.91311 119.396 6.3601 118.816 6.70518C118.252 7.03456 117.608 7.19925 116.887 7.19925ZM119.851 36.0668H113.852V11.387H119.851V36.0668ZM139.29 36.0668H133.432L123.433 11.387H130.021L136.373 29.2675L142.725 11.387H149.336L139.29 36.0668ZM170.882 11.4106H176.105V36.0668H170.859L170.435 33.173C169.494 34.2553 168.388 35.11 167.118 35.7374C165.847 36.3491 164.428 36.655 162.859 36.655C160.633 36.655 158.562 36.0825 156.648 34.9375C154.751 33.7769 153.245 32.2162 152.131 30.2557C151.018 28.2794 150.461 26.1149 150.461 23.7622C150.461 21.4095 151.018 19.2529 152.131 17.2923C153.26 15.3161 154.774 13.7555 156.672 12.6104C158.57 11.4498 160.633 10.8695 162.859 10.8695C164.459 10.8695 165.894 11.1831 167.165 11.8105C168.451 12.4379 169.565 13.3006 170.506 14.3985L170.882 11.4106ZM163.377 30.9615C164.679 30.9615 165.871 30.6556 166.953 30.0439C168.035 29.4165 168.891 28.5617 169.518 27.4795C170.145 26.3815 170.459 25.1503 170.459 23.7858C170.459 22.4212 170.145 21.19 169.518 20.092C168.891 18.9784 168.035 18.1079 166.953 17.4805C165.871 16.8531 164.679 16.5395 163.377 16.5395C162.091 16.5395 160.915 16.8531 159.848 17.4805C158.782 18.1079 157.942 18.9784 157.331 20.092C156.719 21.19 156.413 22.4212 156.413 23.7858C156.413 25.1503 156.719 26.3815 157.331 27.4795C157.942 28.5774 158.774 29.4322 159.824 30.0439C160.891 30.6556 162.075 30.9615 163.377 30.9615Z" fill="white"></path><defs><clipPath id="clip0_5626_1114"><rect width="34.046" height="29.4969" fill="white" transform="translate(0.647461 8.11719)"></rect></clipPath></defs></svg> 