<?xml version="1.0" encoding="UTF-8"?> <svg xmlns="http://www.w3.org/2000/svg" width="252" height="48" viewBox="0 0 252 48" fill="none"><path d="M30.5895 9.14154C32.3058 9.14154 33.6974 7.69982 33.6974 5.92137C33.6974 4.1429 32.3058 2.70117 30.5895 2.70117C28.8729 2.70117 27.4816 4.1429 27.4816 5.92137C27.4816 7.69982 28.8729 9.14154 30.5895 9.14154Z" fill="#60B158"></path><path d="M14.752 43.0321C16.4684 43.0321 17.86 41.5904 17.86 39.8119C17.86 38.0334 16.4684 36.5918 14.752 36.5918C13.0355 36.5918 11.644 38.0334 11.644 39.8119C11.644 41.5904 13.0355 43.0321 14.752 43.0321Z" fill="#FF6961"></path><path d="M21.5583 6.31541C20.4139 5.0882 20.6381 3.28067 20.894 2.53125C14.896 5.56709 16.2405 12.2562 18.0229 14.5513C19.8054 16.8464 28.5123 25.931 31.0179 28.4902C33.0224 30.5377 32.9268 32.883 32.6288 33.8005C39.7469 29.0236 36.4579 22.5527 34.9092 20.7637C33.3616 18.9758 22.9975 7.85896 21.5594 6.31759L21.5583 6.31541Z" fill="#007AFF"></path><path d="M12.7129 15.4814C11.5684 14.2542 11.7927 12.4467 12.0475 11.6973C6.0506 14.7331 7.39504 21.4223 9.17643 23.7173C10.9589 26.0125 19.6656 35.0971 22.1715 37.6563C24.176 39.7037 24.0801 42.0491 23.7823 42.9664C30.9004 38.1897 27.6113 31.7187 26.0626 29.9297C24.515 28.1418 14.151 17.0249 12.7129 15.4836V15.4814Z" fill="#FFA700"></path><path d="M63.0891 33.9406C61.3291 33.9406 59.6208 33.7231 57.9644 33.2883C56.308 32.8536 54.9621 32.2737 53.9269 31.5491L55.9457 27.0146C56.9187 27.6564 58.0472 28.1741 59.331 28.5674C60.6147 28.9609 61.8777 29.1576 63.1201 29.1576C65.4806 29.1576 66.6607 28.5674 66.6607 27.3873C66.6607 26.7661 66.3191 26.3105 65.6358 26.0207C64.9733 25.7101 63.8965 25.3892 62.4058 25.0578C60.7701 24.7059 59.4035 24.3332 58.306 23.9398C57.2087 23.5256 56.2666 22.8735 55.4797 21.983C54.693 21.0927 54.2996 19.8918 54.2996 18.3803C54.2996 17.0552 54.6618 15.8646 55.3866 14.8086C56.1112 13.7319 57.188 12.883 58.6166 12.2618C60.066 11.6407 61.8364 11.3301 63.9276 11.3301C65.3564 11.3301 66.7643 11.4957 68.1515 11.827C69.5388 12.1376 70.7605 12.6035 71.8164 13.2246L69.9218 17.7903C67.8513 16.6721 65.8428 16.1131 63.8965 16.1131C62.6749 16.1131 61.7846 16.2994 61.2256 16.6721C60.6665 17.0242 60.387 17.49 60.387 18.0697C60.387 18.6494 60.7183 19.0843 61.3808 19.3742C62.0434 19.6641 63.1098 19.9642 64.5798 20.2748C66.2363 20.6269 67.6028 21.0099 68.6796 21.4241C69.7769 21.8175 70.719 22.4593 71.5059 23.3496C72.3133 24.2193 72.7172 25.4099 72.7172 26.9214C72.7172 28.2258 72.3548 29.4061 71.63 30.462C70.9054 31.518 69.8184 32.367 68.369 33.0088C66.9196 33.63 65.1595 33.9406 63.0891 33.9406Z" fill="white"></path><path d="M92.9814 16.6719V33.5055H87.36V31.7041C86.7388 32.3874 85.9933 32.905 85.1237 33.257C84.254 33.6091 83.3327 33.785 82.3595 33.785C80.1855 33.785 78.4462 33.1431 77.1417 31.8594C75.858 30.5756 75.2162 28.6501 75.2162 26.0826V16.6719H81.1173V25.1197C81.1173 26.3828 81.3553 27.3041 81.8316 27.8839C82.3077 28.4637 83.0015 28.7535 83.9125 28.7535C84.8442 28.7535 85.6 28.4326 86.1797 27.7908C86.7802 27.1281 87.0803 26.1239 87.0803 24.7781V16.6719H92.9814Z" fill="white"></path><path d="M107.373 16.3926C108.906 16.3926 110.293 16.7548 111.535 17.4796C112.798 18.1835 113.792 19.1981 114.517 20.5232C115.262 21.8277 115.635 23.3495 115.635 25.0888C115.635 26.8282 115.262 28.3603 114.517 29.6855C113.792 30.9899 112.798 32.0045 111.535 32.7293C110.293 33.4332 108.906 33.7851 107.373 33.7851C105.406 33.7851 103.843 33.1951 102.684 32.0148V39.531H96.7825V16.672H102.404V18.3492C103.501 17.0447 105.158 16.3926 107.373 16.3926ZM106.131 29.0954C107.166 29.0954 108.015 28.7434 108.678 28.0394C109.34 27.3146 109.672 26.3312 109.672 25.0888C109.672 23.8465 109.34 22.8734 108.678 22.1693C108.015 21.4447 107.166 21.0823 106.131 21.0823C105.096 21.0823 104.247 21.4447 103.584 22.1693C102.922 22.8734 102.59 23.8465 102.59 25.0888C102.59 26.3312 102.922 27.3146 103.584 28.0394C104.247 28.7434 105.096 29.0954 106.131 29.0954Z" fill="white"></path><path d="M135.584 25.1198C135.584 25.1613 135.553 25.6479 135.491 26.5797H123.254C123.502 27.4493 123.979 28.1222 124.683 28.5985C125.407 29.0539 126.308 29.2818 127.385 29.2818C128.192 29.2818 128.886 29.1679 129.466 28.94C130.066 28.7124 130.666 28.3397 131.267 27.8219L134.373 31.0521C132.737 32.8742 130.346 33.7851 127.198 33.7851C125.231 33.7851 123.502 33.4124 122.011 32.6671C120.521 31.9217 119.361 30.8864 118.533 29.5612C117.725 28.2361 117.322 26.7349 117.322 25.0577C117.322 23.4013 117.715 21.921 118.502 20.6165C119.309 19.2913 120.417 18.256 121.825 17.5106C123.233 16.7651 124.817 16.3926 126.577 16.3926C128.254 16.3926 129.776 16.7445 131.143 17.4484C132.509 18.1317 133.586 19.136 134.373 20.4611C135.18 21.7656 135.584 23.3186 135.584 25.1198ZM126.608 20.5853C125.697 20.5853 124.931 20.8441 124.31 21.3619C123.709 21.8795 123.326 22.5835 123.161 23.4738H130.056C129.89 22.5835 129.497 21.8795 128.875 21.3619C128.275 20.8441 127.519 20.5853 126.608 20.5853Z" fill="white"></path><path d="M143.926 18.6908C144.527 17.9247 145.303 17.3553 146.256 16.9826C147.229 16.5893 148.337 16.3926 149.579 16.3926V21.7035C149.041 21.6414 148.596 21.6104 148.244 21.6104C146.98 21.6104 145.987 21.9519 145.262 22.6352C144.558 23.3186 144.206 24.3641 144.206 25.7722V33.5057H138.305V16.672H143.926V18.6908Z" fill="white"></path><path d="M180.421 16.6719L174.426 33.5055H168.711L165.543 24.3433L162.251 33.5055H156.536L150.542 16.6719H156.132L159.58 26.859L163.152 16.6719H168.184L171.662 26.9522L175.234 16.6719H180.421Z" fill="white"></path><path d="M190.217 33.7851C188.415 33.7851 186.789 33.4124 185.34 32.6671C183.891 31.9217 182.752 30.8864 181.924 29.5612C181.116 28.2361 180.712 26.7349 180.712 25.0577C180.712 23.4013 181.116 21.9105 181.924 20.5853C182.752 19.2602 183.88 18.2353 185.31 17.5106C186.758 16.7651 188.394 16.3926 190.217 16.3926C192.038 16.3926 193.673 16.7651 195.124 17.5106C196.573 18.2353 197.701 19.2602 198.509 20.5853C199.316 21.8898 199.72 23.3807 199.72 25.0577C199.72 26.7349 199.316 28.2361 198.509 29.5612C197.701 30.8864 196.573 31.9217 195.124 32.6671C193.673 33.4124 192.038 33.7851 190.217 33.7851ZM190.217 29.0954C191.251 29.0954 192.1 28.7434 192.762 28.0394C193.426 27.3146 193.757 26.3209 193.757 25.0577C193.757 23.8155 193.426 22.8423 192.762 22.1383C192.1 21.4343 191.251 21.0823 190.217 21.0823C189.181 21.0823 188.332 21.4343 187.67 22.1383C187.008 22.8423 186.675 23.8155 186.675 25.0577C186.675 26.3209 187.008 27.3146 187.67 28.0394C188.332 28.7434 189.181 29.0954 190.217 29.0954Z" fill="white"></path><path d="M208.075 18.6908C208.676 17.9247 209.452 17.3553 210.404 16.9826C211.378 16.5893 212.485 16.3926 213.728 16.3926V21.7035C213.19 21.6414 212.745 21.6104 212.393 21.6104C211.129 21.6104 210.136 21.9519 209.411 22.6352C208.706 23.3186 208.354 24.3641 208.354 25.7722V33.5057H202.454V16.672H208.075V18.6908Z" fill="white"></path><path d="M223.803 27.6051L222.064 29.3754V33.5062H216.164V10.4609H222.064V22.5426L228.089 16.6726H235.077L228.089 23.8782L235.668 33.5062H228.524L223.803 27.6051Z" fill="white"></path><path d="M242.998 33.7851C241.59 33.7851 240.202 33.6299 238.835 33.3193C237.469 32.9881 236.371 32.5636 235.543 32.046L237.313 28.0083C238.08 28.4846 238.991 28.8676 240.047 29.1575C241.102 29.4267 242.149 29.5612 243.183 29.5612C244.135 29.5612 244.81 29.4681 245.203 29.2818C245.616 29.0746 245.824 28.7848 245.824 28.4121C245.824 28.0394 245.575 27.7806 245.078 27.6355C244.602 27.47 243.836 27.3146 242.78 27.1697C241.433 27.004 240.285 26.7867 239.333 26.5176C238.4 26.2483 237.592 25.7513 236.91 25.0267C236.227 24.302 235.885 23.2874 235.885 21.9829C235.885 20.9063 236.206 19.9538 236.848 19.1256C237.489 18.2766 238.422 17.6141 239.643 17.1378C240.885 16.6409 242.366 16.3926 244.084 16.3926C245.306 16.3926 246.517 16.5167 247.718 16.7651C248.919 17.0136 249.923 17.3657 250.731 17.8211L248.96 21.8277C247.469 20.9995 245.854 20.5853 244.115 20.5853C243.183 20.5853 242.5 20.6992 242.065 20.9271C241.631 21.1341 241.414 21.4135 241.414 21.7656C241.414 22.159 241.652 22.4386 242.127 22.6041C242.604 22.7492 243.391 22.9044 244.488 23.0701C245.876 23.2771 247.024 23.5152 247.935 23.7844C248.847 24.0535 249.633 24.5504 250.295 25.2752C250.979 25.9792 251.321 26.9731 251.321 28.2567C251.321 29.3127 251 30.2652 250.358 31.1142C249.717 31.9424 248.763 32.5945 247.501 33.0708C246.259 33.5471 244.756 33.7851 242.998 33.7851Z" fill="white"></path></svg> 