<?xml version="1.0" encoding="UTF-8"?> <svg xmlns="http://www.w3.org/2000/svg" width="123" height="48" viewBox="0 0 123 48" fill="none"><g clip-path="url(#clip0_5640_1952)"><path d="M14.8177 10.8359V11.0832L17.7037 15.0238V31.4257C16.7104 32.0037 15.5758 32.2939 14.4269 32.2636C12.0308 32.2636 11.0526 30.3925 11.0526 28.1261V10.8359H0.00146484V11.0832L3.22935 15.0238V28.1749C3.22935 32.1674 5.14471 34.7284 8.06735 35.612C8.85997 35.8464 9.6827 35.9631 10.5092 35.9584C11.3742 35.96 12.2353 35.8435 13.0686 35.612C14.8583 35.0633 16.494 34.102 17.8441 32.8054L24.4601 35.612L25.2766 35.9584H25.5208V10.8375L14.8177 10.8359Z" fill="white"></path><path d="M46.2081 10.3444C44.881 10.3343 43.5653 10.5906 42.3389 11.0981C41.1126 11.6057 40.0005 12.3541 39.0687 13.2991V0H28.0176V0.245685L31.2455 4.18629V34.7252C32.7946 35.122 34.3678 35.4177 35.9553 35.6104C37.7015 35.835 39.46 35.9507 41.2206 35.9569C42.4909 35.9612 43.7587 35.8451 45.0071 35.6104C51.4933 34.3681 56.0856 29.7941 56.0856 22.0671C56.0856 15.1229 51.6841 10.3444 46.2081 10.3444ZM40.5369 34.185C40.0358 34.2122 39.535 34.1283 39.0702 33.9392V14.9245C39.9409 14.4001 40.9399 14.1276 41.9562 14.137C44.6942 14.137 47.188 16.4522 47.188 23.1995C47.188 31.6225 44.5477 34.188 40.5384 34.188" fill="white"></path><path d="M94.518 29.3572C93.0926 29.8733 91.5848 30.1236 90.0691 30.0958C83.6592 30.0958 80.4847 24.5787 80.4847 18.422C80.4847 14.2846 82.3421 12.1174 84.4528 12.1174C86.1636 12.1174 87.3373 13.2498 88.5598 14.7287L93.2543 20.4915H93.4985V11.1818C91.0462 10.6162 88.5369 10.3351 86.0202 10.344C79.0776 10.344 73.6001 15.9099 73.6001 23.84C73.6001 30.5918 77.3469 34.4851 81.9514 35.6114C82.9006 35.8427 83.8742 35.959 84.8511 35.9579C85.7355 35.9579 86.6161 35.8414 87.4701 35.6114C89.0238 35.1673 90.4676 34.4034 91.7089 33.3687C92.9502 32.3339 93.9616 31.0512 94.6782 29.6028L94.518 29.3572Z" fill="white"></path><path d="M109.137 10.3441C107.43 10.2905 105.73 10.5856 104.14 11.2113C102.551 11.837 101.105 12.7803 99.8926 13.9834C98.6799 15.1866 97.7253 16.6243 97.0869 18.2088C96.4486 19.7933 96.1401 21.4913 96.1801 23.1991C96.0424 26.0955 96.9532 28.9445 98.7454 31.2239C100.538 33.5034 103.091 35.0605 105.939 35.61C108.047 36.0717 110.23 36.0717 112.338 35.61C115.185 35.0605 117.739 33.5034 119.531 31.2239C121.323 28.9445 122.234 26.0955 122.096 23.1991C122.136 21.4913 121.828 19.7933 121.189 18.2088C120.551 16.6243 119.596 15.1866 118.384 13.9834C117.171 12.7803 115.726 11.837 114.136 11.2113C112.547 10.5856 110.845 10.2905 109.137 10.3441ZM109.139 34.1846C106.253 34.1846 105.081 31.1322 105.081 23.1518C105.081 15.0737 106.254 12.119 109.139 12.119C112.023 12.119 113.197 15.0737 113.197 23.1518C113.197 31.1322 112.025 34.1846 109.139 34.1846Z" fill="white"></path><path d="M71.9761 11.0836V10.8379H57.6987V11.0836L60.9266 15.0242V31.2781L57.6987 35.2187V35.4644H71.9761V35.2187L68.7559 31.2781V15.0242L71.9761 11.0836Z" fill="white"></path><path d="M13.4624 8.44826L8.05518 0.00390625H18.8697L13.4624 8.44826Z" fill="#72BF44"></path><path d="M60.4963 43.6603C60.4963 42.8016 60.751 41.9621 61.2281 41.248C61.7052 40.534 62.3834 39.9775 63.1768 39.6489C63.9701 39.3202 64.8432 39.2343 65.6854 39.4018C66.5277 39.5693 67.3013 39.9828 67.9086 40.5901C68.5158 41.1973 68.9294 41.971 69.0969 42.8133C69.2644 43.6555 69.1785 44.5286 68.8498 45.3219C68.5212 46.1153 67.9647 46.7935 67.2506 47.2706C66.5366 47.7477 65.6971 48.0023 64.8383 48.0023C64.2681 48.0023 63.7035 47.89 63.1768 47.6718C62.65 47.4536 62.1713 47.1338 61.7681 46.7306C61.3649 46.3274 61.0451 45.8487 60.8269 45.3219C60.6087 44.7952 60.4963 44.2305 60.4963 43.6603Z" fill="#72BF44"></path></g><defs><clipPath id="clip0_5640_1952"><rect width="122.095" height="48" fill="white"></rect></clipPath></defs></svg> 