<?xml version="1.0" encoding="utf-8"?>
<!-- Generator: Adobe Illustrator 27.0.0, SVG Export Plug-In . SVG Version: 6.00 Build 0)  -->
<svg version="1.1" id="Layer_1" xmlns="http://www.w3.org/2000/svg" xmlns:xlink="http://www.w3.org/1999/xlink" x="0px" y="0px"
	 viewBox="0 0 1920 470.7" style="enable-background:new 0 0 1920 470.7;" xml:space="preserve">
<style type="text/css">
	.st0{fill:#18113D;}
	.st1{fill:#77BBFF;}
	.st2{fill:#F7B801;}
	.st3{fill:#005093;}
	.st4{fill:#5463FF;}
	.st5{fill:#00B3B6;}
	.st6{fill:#231F20;}
	.st7{fill:#F1F2F2;stroke:#939598;stroke-miterlimit:10;}
	.st8{fill:#FFFFFF;}
</style>
<g>
	<g>
		<g>
			<path class="st1" d="M204.5,349.7C204.5,349.7,204.5,349.7,204.5,349.7c-0.1,0.3-0.1,0.6-0.2,1
				C204.3,350.4,204.4,350.1,204.5,349.7z"/>
			<path class="st5" d="M285.3,292.2l-80.8,57.5c0.9-4.1,1.4-8.2,1.4-12.4v-89.2l31.9-22.7c7.2-5.1,15.5-7.6,23.8-7.6
				c12.8,0,25.4,6,33.4,17.2C308.1,253.4,303.8,279,285.3,292.2z"/>
			<path class="st4" d="M192.2,142.5v158.6c-2.7-3.1-5.8-5.9-9.3-8.4l-19.9-14.2H163l-11.7-8.3l-41-29.2v-98.5c0-22.7,18.4-41,41-41
				c11.3,0,21.6,4.6,28.9,11.9C187.7,120.9,192.2,131.2,192.2,142.5z"/>
			<circle class="st2" cx="151.3" cy="42.6" r="41.1"/>
			<path class="st1" d="M204.5,349.7c-0.1,0.3-0.2,0.7-0.3,1C204.3,350.4,204.4,350.1,204.5,349.7
				C204.5,349.7,204.5,349.7,204.5,349.7z"/>
		</g>
		<g>
			<path class="st6" d="M432.1,68.2c-12.2,0-21.7-3-28.4-9c-6.8-6-10.2-14.4-10.2-25.1c0-11,3.4-19.5,10.2-25.3
				c6.8-5.9,16.3-8.8,28.4-8.8c25.7,0,38.6,11.4,38.6,34.1S457.9,68.2,432.1,68.2z M432.1,377.2c-10.4,0-18.4-3.1-24-9.3
				c-5.6-6.2-8.3-14.8-8.3-25.8V152.4c0-23.4,10.8-35.1,32.4-35.1c21.9,0,32.9,11.7,32.9,35.1v189.7c0,11-2.8,19.6-8.3,25.8
				C451.1,374.1,442.9,377.2,432.1,377.2z"/>
			<path class="st6" d="M566.3,377.7c-21.6,0-32.4-11-32.4-33.1V149.3c0-21.7,10.6-32.6,31.8-32.6c21.2,0,31.8,10.9,31.8,32.6v10.3
				c7.6-13.8,18.3-24.6,31.8-32.3c13.6-7.8,29.2-11.6,47-11.6c38.3,0,63.3,16.5,75.2,49.6c8-15.5,19.5-27.7,34.5-36.4
				c15-8.8,32-13.2,51.2-13.2c57.4,0,86.1,34.6,86.1,103.9v125.1c0,22-11,33.1-32.9,33.1c-21.6,0-32.4-11-32.4-33.1V222.2
				c0-19.3-3.2-33.4-9.7-42.4c-6.4-9-17.3-13.4-32.6-13.4c-17.1,0-30.5,5.9-40.2,17.8c-9.7,11.9-14.6,28.3-14.6,49.4v111.1
				c0,22-10.8,33.1-32.4,33.1c-21.9,0-32.9-11-32.9-33.1V222.2c0-19.3-3.2-33.4-9.7-42.4c-6.4-9-17.1-13.4-32.1-13.4
				c-17.1,0-30.5,5.9-40.2,17.8c-9.7,11.9-14.6,28.3-14.6,49.4v111.1C599.2,366.7,588.2,377.7,566.3,377.7z"/>
			<path class="st6" d="M1023,470.7c-21.6,0-32.4-10.8-32.4-32.6V149.3c0-21.7,10.6-32.6,31.8-32.6c21.6,0,32.4,10.9,32.4,32.6v10.9
				c7.3-13.4,18.3-24.2,32.9-32.3c14.6-8.1,31.3-12.1,50.1-12.1c22.3,0,41.8,5.3,58.7,16c16.9,10.7,30,25.8,39.4,45.2
				c9.4,19.5,14.1,42.8,14.1,70c0,26.9-4.7,50.2-14.1,70c-9.4,19.8-22.4,35.1-39.1,45.7c-16.7,10.7-36.4,16-59,16
				c-18.1,0-34.4-3.9-48.8-11.6c-14.4-7.8-25.5-18.2-33.2-31.3v102.3C1055.9,459.9,1044.9,470.7,1023,470.7z M1119.6,329.7
				c19.5,0,35.1-7,47-20.9c11.8-14,17.8-34.5,17.8-61.8c0-27.6-5.9-48.1-17.8-61.8c-11.8-13.6-27.5-20.4-47-20.4
				c-19.5,0-35.2,6.8-47,20.4c-11.8,13.6-17.8,34.2-17.8,61.8c0,27.2,5.9,47.8,17.8,61.8C1084.4,322.7,1100.1,329.7,1119.6,329.7z"
				/>
			<path class="st6" d="M1391,378.8c-58.1,0-87.2-32.2-87.2-96.6V37.7c0-21.7,10.8-32.6,32.4-32.6c21.9,0,32.9,10.9,32.9,32.6V279
				c0,31,13,46.5,39.2,46.5c2.8,0,5.4-0.1,7.8-0.3c2.4-0.2,4.9-0.4,7.3-0.8c4.9-0.7,8.2,0.6,9.9,3.9c1.7,3.3,2.6,9.9,2.6,19.9
				c0,8.6-1.7,15.3-5.2,20.2c-3.5,4.8-9.2,7.8-17.2,8.8C1406.2,378.2,1398.7,378.8,1391,378.8z"/>
			<path class="st6" d="M1593.5,378.8c-28.9,0-53.8-5.3-74.6-16c-20.9-10.7-37-25.8-48.3-45.5c-11.3-19.6-17-42.9-17-69.8
				c0-26.2,5.5-49.1,16.4-68.7c11-19.6,26.1-35.1,45.4-46.3c19.3-11.2,41.3-16.8,66-16.8c36.2,0,64.8,11.4,85.9,34.1
				c21.1,22.7,31.6,53.8,31.6,93c0,12.8-8.4,19.1-25.1,19.1h-157.6c4.9,45.1,31,67.7,78.3,67.7c9,0,19.2-1.1,30.5-3.4
				c11.3-2.2,22-6.1,32.1-11.6c9-5.2,16.7-6.8,23-4.9c6.3,1.9,10.7,5.6,13.3,11.1c2.6,5.5,3,11.6,1,18.3
				c-1.9,6.7-6.9,12.5-14.9,17.3c-12.2,7.6-26.2,13.2-42,16.8C1621.8,376.9,1607.1,378.8,1593.5,378.8z M1584.1,159.6
				c-19.1,0-34.6,5.9-46.5,17.6c-11.8,11.7-19,27.6-21.4,47.6h128.4c-1.4-21-7.2-37.1-17.5-48.3
				C1616.9,165.2,1602.6,159.6,1584.1,159.6z"/>
			<path class="st6" d="M1784.1,377.7c-22.3,0-33.4-11-33.4-33.1V149.3c0-21.7,10.6-32.6,31.8-32.6c21.2,0,31.8,10.9,31.8,32.6v16
				c12.5-29.6,39.3-46.2,80.4-49.6c15-1.7,23.3,6.7,25.1,25.3c1.7,18.3-7.3,28.4-27.1,30.5l-11.5,1c-42.8,4.1-64.2,25.8-64.2,65.1
				v107C1817,366.7,1806,377.7,1784.1,377.7z"/>
		</g>
	</g>
	<path class="st0" d="M192.2,337.3c0,1.2-0.1,2.3-0.1,3.3c-0.1,0.7-0.1,1.4-0.3,2c-0.1,1.1-0.3,2.2-0.5,3.3c-0.3,1.2-0.6,2.3-1,3.5
		c-0.3,1-0.7,2-1.1,3.1c-0.2,0.5-0.4,1-0.6,1.4c-0.3,0.8-0.7,1.6-1.2,2.4c-0.1,0.3-0.3,0.5-0.4,0.8c-0.6,1-1.2,2-1.9,3
		c-0.7,1-1.4,2-2.1,2.9c-0.1,0.1-0.1,0.1-0.2,0.2c-0.8,1-1.7,2-2.7,2.9c-0.1,0.2-0.3,0.4-0.5,0.5c-0.8,0.8-1.5,1.4-2.3,2.1
		c-0.5,0.4-1,0.8-1.4,1.1c-0.6,0.5-1.3,1-2,1.4c-0.5,0.3-1.1,0.7-1.6,1c-0.2,0.1-0.4,0.3-0.6,0.3c-0.5,0.3-0.9,0.5-1.4,0.8
		c-0.1,0-0.1,0.1-0.1,0.1c-0.7,0.4-1.5,0.8-2.3,1.1c-0.2,0.1-0.4,0.2-0.6,0.3c-0.3,0.1-0.5,0.2-0.8,0.3c-0.1,0.1-0.2,0.1-0.3,0.1
		c-0.3,0.1-0.6,0.2-0.9,0.3c-0.3,0.1-0.6,0.1-1,0.3c-2.3,0.8-4.7,1.4-7.2,1.7l-0.8,0.1L156,378h-0.2c-0.3,0.1-0.6,0.1-1,0.1
		c-0.1,0.1-0.3,0.1-0.5,0.1c-1,0.1-1.9,0.1-2.9,0.1h-0.3c-1,0-2,0-2.9-0.1c-0.2,0-0.4,0-0.6-0.1c-0.2,0-0.5,0-0.7-0.1
		c-0.1,0-0.3,0-0.5-0.1c-0.1,0-0.3,0-0.4-0.1c-0.3,0-0.6,0-0.9-0.1c-0.4-0.1-0.8-0.1-1.2-0.2c-0.3,0-0.5-0.1-0.8-0.1
		c-0.1,0-0.2-0.1-0.3-0.1s-0.1,0-0.1,0c-0.8-0.2-1.6-0.4-2.4-0.6c-0.3-0.1-0.5-0.1-0.7-0.2c-0.1-0.1-0.3-0.1-0.4-0.1
		c-0.3-0.1-0.5-0.2-0.8-0.3c-0.5-0.1-1-0.3-1.5-0.5c-0.3-0.1-0.5-0.1-0.8-0.3c-0.3-0.1-0.7-0.3-1-0.5c-0.8-0.3-1.4-0.6-2.2-1
		c-0.2-0.1-0.4-0.1-0.6-0.3c-0.1-0.1-0.3-0.1-0.4-0.2c-0.1-0.1-0.3-0.2-0.5-0.3c-0.9-0.5-1.8-1-2.7-1.6c-0.1,0-0.2-0.1-0.3-0.2
		c-0.1-0.1-0.2-0.1-0.3-0.2c-0.2-0.1-0.4-0.2-0.6-0.3l-29.4-21l-80.8-57.5C-1.2,279-5.5,253.4,7.6,235c8.1-11.2,20.7-17.2,33.4-17.2
		c8.3,0,16.5,2.5,23.8,7.6L96.6,248l13.7,9.7l29.3,20.8l11.7,8.4l23.8,16.9C186.2,311.9,192.2,324.5,192.2,337.3z"/>
</g>
</svg>
